# xmcd
# 
# Track frame offsets:
#	150
#	30325
#	47925
#	62910
#	77372
#	99175
#	142795
#	177870
#	198610
#	219330
#	243930
#	257957
#
# Disc length: 3677 seconds
#
# Revision: 1
# Processed by: cddbd v1.4PL0 Copyright (c) Steve Scherf et al.
# Submitted via: Audio-CD-Archiv 2.10.440
#
DISCID=9a0e5b0c
DTITLE=Rainer Baumann Band - Realice the good times
DYEAR=1900
DGENRE=blues
TTITLE0=Round midnight
TTITLE1=Blues and trouble
TTITLE2=Lonely avenue
TTITLE3=Girl I want to dance with you
TTITLE4=Ain't no love
TTITLE5=On your way down
TTITLE6=So white and so funky
TTITLE7=Look what you've done
TTITLE8=Carry me on
TTITLE9=Good time
TTITLE10=The wind cries Mary
TTITLE11=Messin' with the kid
EXTD=
EXTT0=
EXTT1=
EXTT2=
EXTT3=
EXTT4=
EXTT5=
EXTT6=
EXTT7=
EXTT8=
EXTT9=
EXTT10=
EXTT11=
PLAYORDER=
